<?xml version="1.0" encoding="UTF-8" standalone="no"?>
<!-- Created with Inkscape (http://www.inkscape.org/) -->

<svg
   xmlns:dc="http://purl.org/dc/elements/1.1/"
   xmlns:cc="http://creativecommons.org/ns#"
   xmlns:rdf="http://www.w3.org/1999/02/22-rdf-syntax-ns#"
   xmlns:svg="http://www.w3.org/2000/svg"
   xmlns="http://www.w3.org/2000/svg"
   xmlns:sodipodi="http://sodipodi.sourceforge.net/DTD/sodipodi-0.dtd"
   xmlns:inkscape="http://www.inkscape.org/namespaces/inkscape"
   width="210mm"
   height="297mm"
   viewBox="0 0 744.09448819 1052.3622047"
   id="svg2"
   version="1.1"
   inkscape:version="0.91 r13725"
   sodipodi:docname="drawing_2.svg">
  <defs
     id="defs4" />
  <sodipodi:namedview
     id="base"
     pagecolor="#ffffff"
     bordercolor="#666666"
     borderopacity="1.0"
     inkscape:pageopacity="0.0"
     inkscape:pageshadow="2"
     inkscape:zoom="0.49497475"
     inkscape:cx="558.73411"
     inkscape:cy="421.17049"
     inkscape:document-units="px"
     inkscape:current-layer="layer1"
     showgrid="false"
     inkscape:window-width="1280"
     inkscape:window-height="962"
     inkscape:window-x="1272"
     inkscape:window-y="-8"
     inkscape:window-maximized="1" />
  <metadata
     id="metadata7">
    <rdf:RDF>
      <cc:Work
         rdf:about="">
        <dc:format>image/svg+xml</dc:format>
        <dc:type
           rdf:resource="http://purl.org/dc/dcmitype/StillImage" />
        <dc:title></dc:title>
      </cc:Work>
    </rdf:RDF>
  </metadata>
  <g
     inkscape:label="Layer 1"
     inkscape:groupmode="layer"
     id="layer1">
    <path
       sodipodi:type="star"
       style="fill:#ff0000;fill-opacity:1;stroke:#ff0000;stroke-width:50;stroke-miterlimit:4;stroke-dasharray:none;stroke-opacity:1"
       id="path4754"
       sodipodi:sides="12"
       sodipodi:cx="119.198"
       sodipodi:cy="121.00156"
       sodipodi:r1="78.584412"
       sodipodi:r2="75.906715"
       sodipodi:arg1="0.80357798"
       sodipodi:arg2="1.0653774"
       inkscape:flatsided="true"
       inkscape:rounded="0"
       inkscape:randomized="0"
       d="M 173.74623,177.5701 138.15389,197.26547 97.482323,196.52598 62.629458,175.54979 42.934087,139.95744 43.67357,99.285881 64.649763,64.433016 l 35.592347,-19.69537 40.67156,0.739483 34.85287,20.976192 19.69537,35.592349 -0.73948,40.67156 z" />
    <path
       sodipodi:type="star"
       style="fill:#ff0000;fill-opacity:1;stroke:#ff0000;stroke-width:50;stroke-miterlimit:4;stroke-dasharray:none;stroke-opacity:1"
       id="path4754-1"
       sodipodi:sides="12"
       sodipodi:cx="406.08133"
       sodipodi:cy="217.9762"
       sodipodi:r1="78.584412"
       sodipodi:r2="75.906715"
       sodipodi:arg1="0.80357798"
       sodipodi:arg2="1.0653774"
       inkscape:flatsided="true"
       inkscape:rounded="0"
       inkscape:randomized="0"
       d="m 460.62956,274.54474 -35.59234,19.69537 -40.67157,-0.73949 -34.85286,-20.97619 -19.69537,-35.59235 0.73948,-40.67156 20.97619,-34.85286 35.59235,-19.69537 40.67156,0.73948 34.85287,20.97619 19.69537,35.59235 -0.73948,40.67156 z"
       transform="matrix(0.88709784,0,0,0.8341159,-20.82261,42.2197)" />
    <path
       sodipodi:type="star"
       style="fill:#ff0000;fill-opacity:1;stroke:#ff0000;stroke-width:50;stroke-miterlimit:4;stroke-dasharray:none;stroke-opacity:1"
       id="path4754-1-6"
       sodipodi:sides="12"
       sodipodi:cx="204.05081"
       sodipodi:cy="375.56"
       sodipodi:r1="78.584412"
       sodipodi:r2="75.906715"
       sodipodi:arg1="0.80357798"
       sodipodi:arg2="1.0653774"
       inkscape:flatsided="true"
       inkscape:rounded="0"
       inkscape:randomized="0"
       d="m 258.59905,432.12854 -35.59235,19.69537 -40.67156,-0.73948 -34.85287,-20.9762 -19.69537,-35.59235 0.73948,-40.67156 20.9762,-34.85286 35.59234,-19.69537 40.67157,0.73948 34.85286,20.97619 19.69537,35.59235 -0.73948,40.67156 z"
       transform="matrix(0.52847082,0,0,0.47548888,67.931641,156.5793)" />
    <path
       sodipodi:type="star"
       style="fill:#ff0000;fill-opacity:1;stroke:#ff0000;stroke-width:50;stroke-miterlimit:4;stroke-dasharray:none;stroke-opacity:1"
       id="path4754-1-6-0"
       sodipodi:sides="12"
       sodipodi:cx="204.05081"
       sodipodi:cy="375.56"
       sodipodi:r1="78.584412"
       sodipodi:r2="75.906715"
       sodipodi:arg1="0.80357798"
       sodipodi:arg2="1.0653774"
       inkscape:flatsided="true"
       inkscape:rounded="0"
       inkscape:randomized="0"
       d="m 258.59905,432.12854 -35.59235,19.69537 -40.67156,-0.73948 -34.85287,-20.9762 -19.69537,-35.59235 0.73948,-40.67156 20.9762,-34.85286 35.59234,-19.69537 40.67157,0.73948 34.85286,20.97619 19.69537,35.59235 -0.73948,40.67156 z"
       transform="matrix(0.26132586,0.00397733,-0.00274401,0.30663842,255.35935,303.41208)" />
    <path
       sodipodi:type="star"
       style="fill:#ff0000;fill-opacity:1;stroke:#ff0000;stroke-width:50;stroke-miterlimit:4;stroke-dasharray:none;stroke-opacity:1"
       id="path4754-1-6-0-7"
       sodipodi:sides="12"
       sodipodi:cx="204.05081"
       sodipodi:cy="375.56"
       sodipodi:r1="78.584412"
       sodipodi:r2="75.906715"
       sodipodi:arg1="0.80357798"
       sodipodi:arg2="1.0653774"
       inkscape:flatsided="true"
       inkscape:rounded="0"
       inkscape:randomized="0"
       d="m 258.59905,432.12854 -35.59235,19.69537 -40.67156,-0.73948 -34.85287,-20.9762 -19.69537,-35.59235 0.73948,-40.67156 20.9762,-34.85286 35.59234,-19.69537 40.67157,0.73948 34.85286,20.97619 19.69537,35.59235 -0.73948,40.67156 z"
       transform="matrix(0.19143062,0.00295104,-0.00201009,0.22751526,395.04877,354.16197)" />
  </g>
</svg>
